<?xml version="1.0" encoding="UTF-8"?>
<!DOCTYPE svg PUBLIC "-//W3C//DTD SVG 1.1//EN" "http://www.w3.org/Graphics/SVG/1.1/DTD/svg11.dtd">
<!-- Creator: CorelDRAW (OEM Version) -->
<svg xmlns="http://www.w3.org/2000/svg" xml:space="preserve" width="27.7812mm" height="26.4582mm" version="1.1" style="shape-rendering:geometricPrecision; text-rendering:geometricPrecision; image-rendering:optimizeQuality; fill-rule:evenodd; clip-rule:evenodd"
viewBox="0 0 2778.12 2645.82"
 xmlns:xlink="http://www.w3.org/1999/xlink"
 xmlns:xodm="http://www.corel.com/coreldraw/odm/2003">
 <defs>
  <style type="text/css">
   <![CDATA[
    .fil0 {fill:black;fill-rule:nonzero}
   ]]>
  </style>
 </defs>
 <g id="Layer_x0020_1">
  <metadata id="CorelCorpID_0Corel-Layer"/>
  <g id="_2481867234032">
   <g>
    <path class="fil0" d="M1440.98 142.14c-39.51,184.85 -81.18,379.86 -119.44,558.81l0 0.01 0 0 -10.25 47.94 -1.07 -1.05 -0.01 0.01 1.08 1.05 -10.25 47.93 0 0.01 -10.24 47.94 -0.49 -0.48 0 0.01 0.48 0.47 -10.25 47.95 0 0 -6.72 31.45 -4.15 20.1 -8.73 42.31 -0.42 2.03 -9.17 44.44 -18.32 88.77 -9.17 44.41 34.83 -5.14 51.62 -7.61 7.69 7.5 0 0 -7.69 -7.5 51.61 -7.61 0.01 0 51.6 -7.61 0 0 51.61 -7.61 7.69 7.51 0.01 -0.01 -7.69 -7.5 51.6 -7.61 0 0 51.62 -7.61 0 0 51.61 -7.61 0 0 51.61 -7.6 0.06 0.05 -0.06 -0.05 51.61 -7.62 0 0 51.61 -7.6 0.06 0.05 0 0 -0.06 -0.05 51.61 -7.62 0.01 0 51.61 -7.6 0.05 0.05 0.01 0 -0.06 -0.06 51.61 -7.6 0.05 0.05 0.01 0 -0.06 -0.05 51.61 -7.61 0.01 0 51.6 -7.61 0.05 0.05 0.01 0 -0.06 -0.05 43.13 -6.36 -0.05 0.06 0.06 0 0.03 0 -6.63 9.53 6.59 -0.97 -18.32 26.01 -18.34 26.02 -18.32 26.01 -18.32 26 -18.33 26.01 -18.32 26.01 -18.33 26.02 -18.33 26 -18.32 26.01 -18.32 26.01 -18.33 26 -18.32 26.01 0 0 -0.01 0.02 -18.31 25.99 -18.33 26.01 -18.32 26 -18.33 26.02 -18.33 26 -18.32 26.01 -18.32 26.01 -13.66 19.38 -4.66 6.67 -18.34 26.22 -18.32 26.2 -18.33 26.2 -18.32 26.2 -18.32 26.2 -18.34 26.22 -18.32 26.2 -18.33 26.2 -18.32 26.2 -5.73 8.19 -0.07 0.1 -4.17 6 -4.16 5.99 -4.17 6 0 0 -4.17 6 -4.18 6 -4.16 5.99 -4.17 6.01 -4.17 5.99 -4.17 6.01 -4.17 6 -4.17 5.99 -4.17 6 -4.17 6 -4.17 6 -4.17 6 -4.17 5.99 -4.17 6 -4.17 6 -4.17 6 -4.17 6 -4.17 6 -4.17 6 -4.17 5.99 -4.17 6 -4.17 6 0 -0.02 0 0.01 0 0.01 -4.17 6 -4.16 5.99 -4.17 6.01 -4.17 5.99 -4.18 6.01 -4.17 5.99 -1.6 2.31 -2.57 3.69 0 0.01 -4.17 6 -4.16 5.98 0 0.01 -4.17 5.99 0 0.01 -4.17 5.99 0 0.01 -4.17 5.99 0 0 -0.6 0.86 0 0 -23.99 34.53 -24 34.54 -9.18 13.21 -14.82 21.33 -24 34.53 -24.01 34.53 0 0 -24 34.53 0.01 0 -0.01 0 -23.99 34.53 -24.01 34.54 -24 34.53 -24 34.53 0 0.01 -24 34.53 -24 34.53 -0.03 -0.03 0 0 0.03 0.03 -24.01 34.54 -12.75 18.35 0.03 -0.12 -0.04 0.05 0.04 -0.07 1.29 -6.02 -1.33 1.9 8.96 -271.58 18.33 -554.95 1.04 -31.49 -40.41 8.58 -48.79 10.36 -0.01 0 -48.78 10.36 0 0 -48.8 10.36 -48.79 10.36 -48.8 10.36 -48.79 10.35 -48.79 10.36 -0.01 0 0 0 -48.78 10.36 0 0 -48.79 10.36 -48.8 10.36 -76.1 -74.21 22.46 -36.04 22.46 -36.04 0 0 22.45 -36.03 0 -0.01 22.46 -36.03 181.44 176.92 -181.44 -176.92 22.46 -36.04 22.46 -36.03 22.45 -36.04 260.45 253.96 -260.45 -253.97 22.46 -36.03 0.01 0 22.45 -36.03 0 -0.01 22.46 -36.04 22.45 -36.03 22.46 -36.05 22.46 -36.03 99.09 96.62 -99.08 -96.62 22.45 -36.03 0 -0.01 22.46 -36.04 0 0 22.45 -36.03 69.24 67.51 0 0 -69.23 -67.51 22.46 -36.04 22.45 -36.04 22.46 -36.03 0 -0.01 22.46 -36.03 0 0 22.46 -36.04 0 0 22.45 -36.04 0.01 0 22.45 -36.03 48.75 47.52 0 0 -48.75 -47.53 22.47 -36.04 46.11 44.97 0 -0.01 -46.11 -44.96 22.45 -36.03 22.46 -36.04 22.45 -36.03 22.47 -36.04 35.58 34.69 -35.58 -34.7 22.46 -36.03 -0.01 0 0.01 0 22.45 -36.04 22.46 -36.04 22.45 -36.03 25.06 24.44 0 -0.01 -25.05 -24.43 22.46 -36.04 -0.01 0 0.01 0 22.45 -36.04 19.8 19.3 0 0 -19.8 -19.3c82.53,-132.41 93.89,-124.96 187.76,-307.68l6.63 -4.25zm-253.9 485.65l0 0 -30.32 -29.57 30.32 29.57zm-79.31 154.41l-40.84 -39.83 40.84 39.83zm-161.19 306.31l-59.32 -57.84 59.32 57.84zm389.32 1016.93l0.01 0.01 -0.01 -0.01zm24 -34.54l0.01 0.01 -0.01 -0.01zm-898.37 -296.63l-43.41 9.22 19.98 -32.06 0 -0.01 22.46 -36.03 22.45 -36.04 76.11 74.21 -48.79 10.35 -49.77 -48.52 49.77 48.52 -48.8 10.36 0 0zm922.37 262.11l0 0 0 0zm-396.65 -1024.07l-55.07 -53.71 55.07 53.71zm100.7 -191.5l-43.48 -42.4 43.48 42.4zm192.59 71.93l0 0 -0.19 -0.19 0.19 0.19zm-152.94 -149.14l-38.22 -37.26 38.22 37.26zm595.66 349.08l-0.06 -0.06 0 0 0.06 0.06zm-499.12 -602.57l-0.01 0 0.01 0zm757.18 564.52l-0.05 -0.05 -0.01 0 0.06 0.05z"/>
   </g>
   <path class="fil0" d="M2293.93 1253.72l60.79 85.75c-611.39,397.18 -1687.03,814.27 -2058.52,690.57 -274.42,-91.37 -157.2,-315.14 -58.45,-407.72 71.37,-66.9 186.61,-150.54 186.61,-150.54 0,0 -147.71,60.37 -259.86,163.25 -99.91,91.63 -170.13,223.06 -123.74,348.15 27.81,75.07 88.03,154.22 235.89,203.23 143.9,47.73 402.44,43.77 712.53,-31.19 711.19,-171.98 1260.95,-463.66 1485.85,-615.23l56.27 82.24 194.22 -369.62 -431.59 1.11z"/>
   <path class="fil0" d="M2725.51 1252.61l0.01 0.01 -194.21 369.61 -56.29 -82.24c-224.9,151.57 -774.64,443.25 -1485.85,615.23 -310.08,74.97 -568.61,78.92 -712.53,31.21 -147.84,-49.04 -208.06,-128.17 -235.88,-203.26 -46.4,-125.07 23.84,-256.52 123.73,-348.15 112.15,-102.86 259.86,-163.23 259.86,-163.23 0,0 -115.24,83.62 -186.59,150.54 -98.77,92.56 -215.97,316.34 58.43,407.71 371.5,123.7 1447.13,-293.39 2058.53,-690.57l-60.8 -85.75 431.59 -1.11z"/>
   <path class="fil0" d="M1070.54 2503.59c123.52,-231.82 247.04,-463.63 370.57,-695.46 52.7,-100.7 88.74,-188.89 113.01,-255.22 62.82,-171.8 103.66,-288.15 48.03,-367.39 -24.93,-35.52 -62.04,-53.33 -90.98,-62.91 192.09,-28.39 384.19,-56.76 576.27,-85.15l-1016.9 1466.13z"/>
   <path class="fil0" d="M1251.57 1606.59c-277.83,58.96 -555.63,117.94 -833.47,176.92 53.47,-85.8 106.93,-171.59 160.4,-257.4 287.47,-461.32 574.93,-922.65 862.4,-1383.97 -185.24,287.13 -300.96,538.49 -371.91,713.65 -128.02,316.02 -231.69,580.14 -118.14,700.32 72.57,76.81 207.87,67.32 300.72,50.48z"/>
  </g>
 </g>
</svg>
