<?xml version="1.0" encoding="UTF-8"?>
<!DOCTYPE svg PUBLIC "-//W3C//DTD SVG 1.1//EN" "http://www.w3.org/Graphics/SVG/1.1/DTD/svg11.dtd">
<!-- Creator: CorelDRAW (OEM Version) -->
<svg xmlns="http://www.w3.org/2000/svg" xml:space="preserve" width="92.604mm" height="26.4582mm" version="1.1" style="shape-rendering:geometricPrecision; text-rendering:geometricPrecision; image-rendering:optimizeQuality; fill-rule:evenodd; clip-rule:evenodd"
viewBox="0 0 9260.4 2645.82"
 xmlns:xlink="http://www.w3.org/1999/xlink"
 xmlns:xodm="http://www.corel.com/coreldraw/odm/2003">
 <defs>
  <style type="text/css">
   <![CDATA[
    .fil0 {fill:white;fill-rule:nonzero}
   ]]>
  </style>
 </defs>
 <g id="Layer_x0020_1">
  <metadata id="CorelCorpID_0Corel-Layer"/>
  <g id="_2481864668336">
   <path class="fil0" d="M3099.18 1691.44l0 -1199.65c0,-92.94 21.36,-162.81 64.1,-209.61 42.75,-46.81 109.21,-70.22 199.44,-70.22l152.63 0 0 197.41 -148.56 0c-21.04,0 -36.3,7.97 -45.79,23.92 -9.51,15.93 -14.26,34.76 -14.26,56.46l0 1201.69 -207.56 0zm-111.92 -1056.18l528.09 0 0 177.03 -528.09 0 0 -177.03z"/>
   <path class="fil0" d="M3716.52 635.26l207.58 0 0 1056.18 -207.58 0 0 -1056.18zm0 -423.29l207.58 0 0 207.58 -207.58 0 0 -207.58z"/>
   <path class="fil0" d="M4838.88 1691.44l0 -640.03c0,-74.6 -19.18,-132.26 -57.5,-172.96 -38.32,-40.71 -92.75,-61.06 -163.31,-61.06 -67.84,0 -120.23,17.98 -157.19,53.92 -36.98,35.97 -55.48,86.51 -55.48,151.61l-21.35 -203.5c32.56,-63.75 75.11,-112.94 127.7,-147.53 52.55,-34.59 110.74,-51.9 174.5,-51.9 114.63,0 203.32,37.49 266.07,112.44 62.75,74.97 94.13,180.95 94.13,317.98l0 641.03 -207.57 0zm-641.04 -1056.18l207.56 0 0 1056.18 -207.56 0 0 -1056.18z"/>
   <path class="fil0" d="M6581.91 1691.44l0 -640.03c0,-74.6 -19.15,-132.26 -57.48,-172.96 -38.33,-40.71 -92.77,-61.06 -163.31,-61.06 -64.47,0 -114.31,19.68 -149.57,59.01 -35.29,39.35 -52.91,95 -52.91,166.87l-41.72 -203.49c33.91,-70.55 78,-124.81 132.28,-162.81 54.26,-37.99 114.29,-56.98 180.08,-56.98 114.65,0 203.34,37.49 266.09,112.44 62.73,74.97 94.13,180.95 94.13,317.98l0 641.03 -207.59 0zm-630.84 0l0 -640.03c0,-74.6 -18.33,-132.26 -54.96,-172.96 -36.63,-40.71 -88.51,-61.06 -155.67,-61.06 -67.84,0 -120.24,17.98 -157.21,53.92 -36.98,35.97 -55.46,86.51 -55.46,151.61l-21.37 -203.5c32.56,-63.75 75.13,-112.94 127.71,-147.53 52.54,-34.59 110.73,-51.9 174.49,-51.9 111.23,0 197.41,37.49 258.45,112.44 61.06,74.97 91.59,180.95 91.59,317.98l0 641.03 -207.57 0zm-630.88 -1056.18l207.58 0 0 1056.18 -207.58 0 0 -1056.18z"/>
   <path class="fil0" d="M7657.42 1691.44l0 -669.52c0,-69.2 -18.47,-122.95 -55.44,-161.29 -36.98,-38.3 -89.38,-57.48 -157.21,-57.48 -41.38,0 -82.27,6.27 -122.62,18.83 -40.36,12.55 -76.48,30.69 -108.35,54.42l-151.63 -103.78c40.03,-48.15 92.76,-85.63 158.23,-112.43 65.46,-26.79 138.22,-40.2 218.27,-40.2 132.26,0 234.69,34.26 307.28,102.77 72.6,68.52 108.89,165.19 108.89,290l0 678.68 -197.42 0zm-258.44 15.26c-129.57,0 -226.74,-26.78 -291.52,-80.38 -64.8,-53.59 -97.17,-135.66 -97.17,-246.24 0,-105.15 29.66,-183.66 89.03,-235.56 59.35,-51.89 148.38,-77.84 267.11,-77.84l300.16 0 14.24 166.87 -313.4 0c-53.58,0 -93.96,12.06 -121.08,36.13 -27.13,24.08 -40.69,60.89 -40.69,110.4 0,53.6 17.97,93.27 53.92,119.05 35.94,25.79 89.88,38.66 161.79,38.66 78.68,0 137.7,-8.48 177.05,-25.43 39.32,-16.96 59,-43.41 59,-79.37l21.37 148.55c-18.31,28.49 -41.05,51.9 -68.17,70.2 -27.13,18.33 -58.16,32.06 -93.1,41.22 -34.95,9.16 -74.45,13.74 -118.54,13.74z"/>
   <path class="fil0" d="M8584.37 1205.07l-87.49 -195.37 230.97 -374.44 230.96 0 -374.44 569.81zm160.77 486.37l-315.42 -480.27 -388.69 -575.91 230.96 0 303.23 473.14 399.88 583.04 -229.96 0zm-720.41 0l398.89 -583.04 99.71 191.3 -268.63 391.74 -229.97 0z"/>
   <path class="fil0" d="M3012.34 787.29l477.93 0 0 -126.88 -477.93 0 0 126.88zm528.09 50.15l-578.25 0 0 -227.2 578.25 0 0 227.2z"/>
   <path class="fil0" d="M3124.29 1666.4l157.43 0 0 -1176.61c0,-28.74 6.58,-53 19.57,-72.11 14.92,-21.83 37.59,-33.35 65.54,-33.35l123.47 0 0 -147.25 -127.57 0c-81.87,0 -142.61,20.75 -180.49,61.68 -38.46,41.46 -57.95,106.42 -57.95,193.05l0 1174.59zm207.58 50.16l-257.74 0 0 -1224.75c0,-99.69 24.01,-176.13 71.32,-227.16 47.77,-51.56 120.88,-77.72 217.28,-77.72l177.73 0 0 247.55 -173.63 0c-14.34,0 -20.23,5.8 -24.11,11.46 -7.19,10.58 -10.85,25.36 -10.85,43.85l0 1226.77z"/>
   <path class="fil0" d="M3740.89 1666.39l157.42 0 0 -1006.02 -157.42 0 0 1006.02zm207.57 50.16l-257.73 0 0 -1106.34 257.73 0 0 1106.34z"/>
   <path class="fil0" d="M3740.89 394.54l157.42 0 0 -157.43 -157.42 0 0 157.43zm207.57 50.15l-257.73 0 0 -257.74 257.73 0 0 257.74z"/>
   <path class="fil0" d="M4861.15 1666.39l157.43 0 0 -615.95c0,-130.31 -29.7,-231.86 -88.26,-301.88 -58.32,-69.61 -139.07,-103.45 -246.86,-103.45 -58.49,0 -112.54,16.06 -160.69,47.78 -46.89,30.86 -85.8,75.05 -115.76,131.44l6.5 62.02c7.77,-11.96 16.82,-22.94 27.11,-32.94 41.59,-40.51 100.36,-61.06 174.68,-61.06 76.7,0 137.58,23.17 180.98,68.87 43.04,45.31 64.87,109.3 64.87,190.24l0 614.93zm207.59 50.16l-257.75 0 0 -665.09c0,-67.64 -17.18,-120.02 -51.09,-155.7 -34.01,-35.83 -81.32,-53.25 -144.6,-53.25 -60.79,0 -107.79,15.76 -139.71,46.85 -32.22,31.31 -47.88,75.03 -47.88,133.61l-50.03 2.63 -22.12 -210.93 3.38 -6.62c34.39,-67.35 80.24,-120.19 136.23,-157.06 56.49,-37.18 119.82,-56.04 188.29,-56.04 121.83,0 217.81,40.84 285.31,121.41 66.33,79.3 99.97,191.7 99.97,334.08l0 666.11z"/>
   <path class="fil0" d="M4220.15 1666.39l157.41 0 0 -1006.02 -157.41 0 0 1006.02zm207.57 50.16l-257.73 0 0 -1106.34 257.73 0 0 1106.34z"/>
   <path class="fil0" d="M5971.27 1666.4l157.42 0 0 -615.95c0,-87.09 -13.2,-162.18 -39.21,-223.17 -25.32,-59.42 -62.33,-105.09 -110.05,-135.8 -47.9,-30.77 -107.02,-46.37 -175.7,-46.37 -58.51,0 -112.57,16.07 -160.7,47.77 -46.87,30.83 -85.79,75.04 -115.78,131.46l6.52 62c7.79,-11.96 16.83,-22.96 27.13,-32.96 41.58,-40.49 100.37,-61.02 174.65,-61.02 74.27,0 132.93,23.34 174.35,69.35 40.73,45.24 61.37,109.09 61.37,189.76l0 614.93zm207.57 50.16l-257.73 0 0 -665.09c0,-67.89 -16.31,-120.46 -48.5,-156.21 -31.95,-35.49 -76.77,-52.74 -137.06,-52.74 -60.76,0 -107.77,15.76 -139.69,46.81 -32.22,31.31 -47.86,75.02 -47.86,133.65l-50.05 2.62 -22.15 -210.92 3.38 -6.64c34.44,-67.38 80.28,-120.23 136.27,-157.04 56.45,-37.19 119.8,-56.04 188.28,-56.04 78.45,0 146.68,18.27 202.82,54.33 56.33,36.25 99.75,89.52 129.07,158.32 28.68,67.26 43.22,148.95 43.22,242.84l0 666.11z"/>
   <path class="fil0" d="M5340.43 1666.39l157.39 0 0 -1006.02 -157.39 0 0 1006.02zm207.57 50.16l-257.71 0 0 -1106.34 257.71 0 0 1106.34z"/>
   <path class="fil0" d="M6602.12 1666.4l157.42 0 0 -615.95c0,-87.02 -13.51,-162.04 -40.11,-222.97 -25.98,-59.4 -64.14,-105.11 -113.41,-135.8 -49.64,-30.9 -110.75,-46.57 -181.59,-46.57 -60.2,0 -116.13,17.83 -166.22,52.97 -48.78,34.21 -89.09,82.99 -119.9,145.05l14.61 71.2c9.12,-20.49 20.83,-38.73 35.06,-54.63 40.07,-44.69 96.7,-67.34 168.28,-67.34 76.67,0 137.54,23.15 180.98,68.85 43.05,45.29 64.88,109.31 64.88,190.26l0 614.93zm207.58 50.16l-257.73 0 0 -665.09c0,-67.66 -17.19,-120.04 -51.08,-155.7 -34.05,-35.83 -81.37,-53.25 -144.63,-53.25 -57.52,0 -100.35,16.57 -130.92,50.67 -30.86,34.43 -46.49,84.94 -46.49,150.14l0 247.12 -93.07 -453.82 3.61 -7.59c35.01,-73.53 82.12,-131.41 140.02,-172.04 58.7,-41.16 124.32,-62.04 195.02,-62.04 80.37,0 150.38,18.2 208.11,54.13 58.03,36.16 102.74,89.43 132.85,158.3 29.39,67.31 44.31,149.08 44.31,243.06l0 666.11z"/>
   <path class="fil0" d="M7361.56 1091.81c-112.52,0 -196.97,24.24 -251.01,72.06 -53.1,47.02 -80.03,119.77 -80.03,216.26 0,103.02 28.67,177.13 87.66,226.51 59.53,49.79 152.37,75.02 275.93,75.02 41.76,0 79.71,-4.34 112.75,-12.92 32.31,-8.39 60.99,-21.07 85.27,-37.65 21.48,-14.68 40.16,-33.31 55.61,-55.46l-8.77 -61.01c-9.37,7.61 -20.86,14.65 -34.92,20.75 -42.55,18.52 -103.91,27.52 -187.56,27.52 -78.76,0 -136.66,-14.2 -176.98,-43.39 -42.35,-30.63 -63.82,-77.52 -63.82,-139.37 0,-56.71 16.32,-100.14 48.55,-129.07 31.35,-28.22 77.89,-42.53 138.33,-42.53l286.09 0 -9.98 -116.72 -277.12 0zm32.55 640.01c-135.64,0 -239.3,-29.18 -308.1,-86.71 -70.12,-58.7 -105.65,-147.84 -105.65,-264.98 0,-111.46 32.62,-196.86 96.95,-253.83 63.49,-56.17 159.12,-84.65 284.25,-84.65l323.16 0 18.56 217.03 -340.71 0c-47.66,0 -82.9,10 -104.8,29.68 -21.49,19.31 -31.92,49.32 -31.92,91.77 0,45.46 14.09,77.76 43.07,98.73 31.04,22.49 80.68,33.87 147.57,33.87 75.58,0 131.95,-7.86 167.57,-23.35 38.93,-16.92 43.43,-40.26 43.43,-56.35l49.91 -3.58 22.68 157.82 -5.04 7.87c-20.03,31.18 -45.15,57.22 -74.62,77.36 -29.06,19.86 -63.02,34.93 -100.94,44.79 -37.18,9.65 -79.36,14.53 -125.37,14.53z"/>
   <path class="fil0" d="M7677.65 1666.4l147.23 0 0 -653.6c0,-78.08 -15.36,-145.35 -45.69,-199.98 -29.88,-53.83 -74.17,-95.56 -131.65,-124.02 -58.66,-28.99 -130.57,-43.69 -213.73,-43.69 -76.4,0 -146.65,12.91 -208.78,38.34 -51.64,21.17 -95.21,49.6 -129.85,84.73l113.6 77.76c29.78,-19.74 63.28,-35.64 99.88,-47.31 42.65,-13.63 86.81,-20.53 131.25,-20.53 74.53,0 133.5,21.91 175.24,65.15 41.47,43.03 62.5,103.16 62.5,178.71l0 644.44zm197.39 50.16l-247.54 0 0 -694.6c0,-62.13 -16.31,-110.54 -48.44,-143.88 -32.37,-33.53 -77.89,-49.82 -139.15,-49.82 -39.24,0 -78.28,6.1 -116,18.15 -37.52,11.97 -71.19,28.87 -100.06,50.21l-14.35 10.6 -189.08 -129.42 17.61 -21.17c42.43,-51.08 98.96,-91.31 167.99,-119.61 68.2,-27.9 144.84,-42.06 227.79,-42.06 90.93,0 170.33,16.45 235.97,48.88 66.79,33.06 118.35,81.73 153.26,144.64 34.51,62.16 52,137.63 52,224.32l0 703.76z"/>
   <path class="fil0" d="M8520.29 1011.6l63.41 141.48 323.77 -492.69 -170.5 0 -216.68 351.21zm55.05 245.52l-111.68 -249.25 245.32 -397.64 291.46 0 -425.1 646.89z"/>
   <path class="fil0" d="M8067.42 1666.4l169.21 0 252.61 -368.44 -73.41 -140.86 -348.41 509.3zm195.63 50.16l-290.71 0 449.31 -656.79 125.99 241.72 -284.59 415.07z"/>
   <path class="fil0" d="M8753.8 1666.4l168.83 0 -372.97 -543.77 -296.27 -462.25 -170.06 0 362.28 536.81 308.19 469.21zm264.04 50.16l-291.11 0 -322.86 -491.56 -414.9 -614.78 291.86 0 310.63 484.67 426.38 621.67z"/>
   <g>
    <polygon class="fil0" points="3478.16,2052.58 3348.37,2052.58 3348.37,2459.99 3204.2,2459.99 3204.2,2052.58 3074.14,2052.58 3074.14,1918.12 3478.16,1918.12 "/>
    <path class="fil0" d="M3683.53 2156.12l58.86 0.33c30.55,0.32 58.48,-21.16 58.48,-54.49 0,-33.6 -28.27,-54.43 -58.48,-54.43l-58.86 0 0 108.59zm145.53 303.87l-144.83 -235.31 0 235.31 -143.92 0 -0.62 -541.87 205.68 0c117.01,0 200.7,78.98 200.7,176.12 0,67.57 -40.67,124.03 -93.78,148.26l145.25 217.49 -168.48 0z"/>
    <path class="fil0" d="M4351.18 2291.57l-55.51 -128.38 -55.74 128.38 111.25 0zm45.68 105.24l-202.32 0 -27.57 63.19 -157.35 0 251.79 -548.6 68.24 0 252.14 548.6 -157.65 0 -27.28 -63.19z"/>
    <polygon class="fil0" points="4778.53,2051.89 4778.53,2139.64 4950.63,2139.64 4950.63,2260.01 4778.53,2260.01 4778.53,2460.67 4636.34,2460.67 4636.34,1916.78 4987.63,1916.78 4987.63,2051.89 "/>
    <path class="fil0" d="M5475.01 2188.71c0,-83.7 -65.89,-148.22 -151.94,-148.22 -86.06,0 -151.99,64.52 -151.99,148.22 0,83.36 65.93,147.56 151.99,147.56 86.05,0 151.94,-64.2 151.94,-147.56zm-449.46 0.99c0,-162.68 129.08,-286.02 297.52,-286.02 168.39,0 297.46,123.34 297.46,286.02 0,161.37 -129.07,284.08 -297.84,284.08 -168.38,0 -297.14,-122.71 -297.14,-284.08z"/>
    <path class="fil0" d="M6125.38 2341.67c-36.61,-29.94 -71.25,-63.2 -100.81,-97.47 -15.78,13.44 -24.88,30.92 -24.88,49.4 0,34.63 28.89,59.18 76.31,59.18 18.84,0 35.29,-4.05 49.38,-11.11zm263.58 125.02c-42.36,0 -95.15,-18.14 -149.25,-47.69 -41.04,34.6 -93.45,53.11 -155.33,53.11 -134.12,0 -206.09,-88.41 -206.09,-173.8 0,-61.55 37.38,-116.31 82.71,-145.2 -17.76,-33.98 -28.22,-67.26 -28.22,-97.18 0,-80.35 74.64,-153.64 173.47,-153.64 80.31,0 150.61,50.1 165.05,131.81l-124.05 31.59c-2.69,-32.95 -27.24,-49.1 -47.74,-49.1 -19.8,0 -41.33,15.12 -41.33,45.05 0,51.46 62.54,123.04 136.48,181.2 5.7,-21.87 8.76,-45.06 10.09,-68.57l132.43 -1.7c-1.33,55.13 -10.75,103.21 -26.87,144.21 30.92,14.8 58.49,23.89 79.32,24.55l-0.67 125.36z"/>
    <polygon class="fil0" points="7242.34,1913.06 7242.34,2459.97 7098.46,2459.97 7098.46,2245.21 6952.55,2450.92 6951.56,2450.92 6805.33,2245.21 6805.33,2459.97 6661.45,2459.97 6661.45,1913.06 6719.27,1913.06 6951.9,2231.74 7184.52,1913.06 "/>
    <polygon class="fil0" points="7479.16,2051.89 7479.16,2127.53 7651.26,2127.53 7651.26,2247.52 7479.16,2247.52 7479.16,2325.18 7688.26,2325.18 7688.26,2460.02 7336.97,2460.02 7336.97,1918.1 7688.26,1918.1 7688.26,2051.89 "/>
    <polygon class="fil0" points="8139.67,2052.58 8009.89,2052.58 8009.89,2459.99 7865.72,2459.99 7865.72,2052.58 7735.64,2052.58 7735.64,1918.12 8139.67,1918.12 "/>
    <path class="fil0" d="M8502.7 2291.57l-55.47 -128.38 -55.8 128.38 111.27 0zm45.72 105.24l-202.37 0 -27.57 63.19 -157.31 0 251.76 -548.6 68.23 0 252.14 548.6 -157.64 0 -27.24 -63.19z"/>
    <polygon class="fil0" points="9139.12,2324.86 9139.12,2460.02 8787.84,2460.02 8787.84,1918.1 8931.72,1918.1 8931.72,2324.86 "/>
   </g>
   <g>
    <g>
     <path class="fil0" d="M1536.13 142.14c-39.51,184.85 -81.18,379.86 -119.44,558.81l0 0.01 0 0 -10.25 47.94 -1.07 -1.05 -0.01 0.01 1.08 1.05 -10.25 47.93 0 0.01 -10.24 47.94 -0.49 -0.48 0 0.01 0.48 0.47 -10.25 47.95 0 0 -6.72 31.45 -4.15 20.1 -8.73 42.31 -0.42 2.03 -9.17 44.44 -18.32 88.77 -9.17 44.41 34.83 -5.14 51.62 -7.61 7.69 7.5 0 0 -7.69 -7.5 51.61 -7.61 0.01 0 51.6 -7.61 0 0 51.61 -7.61 7.69 7.51 0.01 -0.01 -7.69 -7.5 51.6 -7.61 0 0 51.62 -7.61 0 0 51.61 -7.61 0 0 51.61 -7.6 0.06 0.05 -0.06 -0.05 51.61 -7.62 0 0 51.61 -7.6 0.06 0.05 0 0 -0.06 -0.05 51.61 -7.62 0.01 0 51.61 -7.6 0.05 0.05 0.01 0 -0.06 -0.06 51.61 -7.6 0.05 0.05 0.01 0 -0.06 -0.05 51.61 -7.61 0.01 0 51.6 -7.61 0.05 0.05 0.01 0 -0.06 -0.05 43.13 -6.36 -0.05 0.06 0.06 0 0.03 0 -6.63 9.53 6.59 -0.97 -18.32 26.01 -18.34 26.02 -18.32 26.01 -18.32 26 -18.33 26.01 -18.32 26.01 -18.33 26.02 -18.33 26 -18.32 26.01 -18.32 26.01 -18.33 26 -18.32 26.01 0 0 -0.01 0.02 -18.31 25.99 -18.33 26.01 -18.32 26 -18.33 26.02 -18.33 26 -18.32 26.01 -18.32 26.01 -13.66 19.38 -4.66 6.67 -18.34 26.22 -18.32 26.2 -18.33 26.2 -18.32 26.2 -18.32 26.2 -18.34 26.22 -18.32 26.2 -18.33 26.2 -18.32 26.2 -5.73 8.19 -0.07 0.1 -4.17 6 -4.16 5.99 -4.17 6 0 0 -4.17 6 -4.18 6 -4.16 5.99 -4.17 6.01 -4.17 5.99 -4.17 6.01 -4.17 6 -4.17 5.99 -4.17 6 -4.17 6 -4.17 6 -4.17 6 -4.17 5.99 -4.17 6 -4.17 6 -4.17 6 -4.17 6 -4.17 6 -4.17 6 -4.17 5.99 -4.17 6 -4.17 6 0 -0.02 0 0.01 0 0.01 -4.17 6 -4.16 5.99 -4.17 6.01 -4.17 5.99 -4.18 6.01 -4.17 5.99 -1.6 2.31 -2.57 3.69 0 0.01 -4.17 6 -4.16 5.98 0 0.01 -4.17 5.99 0 0.01 -4.17 5.99 0 0.01 -4.17 5.99 0 0 -0.6 0.86 0 0 -23.99 34.53 -24 34.54 -9.18 13.21 -14.82 21.33 -24 34.53 -24.01 34.53 0 0 -24 34.53 0.01 0 -0.01 0 -23.99 34.53 -24.01 34.54 -24 34.53 -24 34.53 0 0.01 -24 34.53 -24 34.53 -0.03 -0.03 0 0 0.03 0.03 -24.01 34.54 -12.75 18.35 0.03 -0.12 -0.04 0.05 0.04 -0.07 1.29 -6.02 -1.33 1.9 8.96 -271.58 18.33 -554.95 1.04 -31.49 -40.41 8.58 -48.79 10.36 -0.01 0 -48.78 10.36 0 0 -48.8 10.36 -48.79 10.36 -48.8 10.36 -48.79 10.35 -48.79 10.36 -0.01 0 0 0 -48.78 10.36 0 0 -48.79 10.36 -48.8 10.36 -76.1 -74.21 22.46 -36.04 22.46 -36.04 0 0 22.45 -36.03 0 -0.01 22.46 -36.03 181.44 176.92 -181.44 -176.92 22.46 -36.04 22.46 -36.03 22.45 -36.04 260.45 253.96 -260.45 -253.97 22.46 -36.03 0.01 0 22.45 -36.03 0 -0.01 22.46 -36.04 22.45 -36.03 22.46 -36.05 22.46 -36.03 99.09 96.62 -99.08 -96.62 22.45 -36.03 0 -0.01 22.46 -36.04 0 0 22.45 -36.03 69.24 67.51 0 0 -69.23 -67.51 22.46 -36.04 22.45 -36.04 22.46 -36.03 0 -0.01 22.46 -36.03 0 0 22.46 -36.04 0 0 22.45 -36.04 0.01 0 22.45 -36.03 48.75 47.52 0 0 -48.75 -47.53 22.47 -36.04 46.11 44.97 0 -0.01 -46.11 -44.96 22.45 -36.03 22.46 -36.04 22.45 -36.03 22.47 -36.04 35.58 34.69 -35.58 -34.7 22.46 -36.03 -0.01 0 0.01 0 22.45 -36.04 22.46 -36.04 22.45 -36.03 25.06 24.44 0 -0.01 -25.05 -24.43 22.46 -36.04 -0.01 0 0.01 0 22.45 -36.04 19.8 19.3 0 0 -19.8 -19.3c82.53,-132.41 93.89,-124.96 187.76,-307.68l6.63 -4.25zm-253.9 485.65l0 0 -30.32 -29.57 30.32 29.57zm-79.31 154.41l-40.84 -39.83 40.84 39.83zm-161.19 306.31l-59.32 -57.84 59.32 57.84zm389.32 1016.93l0.01 0.01 -0.01 -0.01zm24 -34.54l0.01 0.01 -0.01 -0.01zm-898.37 -296.63l-43.41 9.22 19.98 -32.06 0 -0.01 22.46 -36.03 22.45 -36.04 76.11 74.21 -48.79 10.35 -49.77 -48.52 49.77 48.52 -48.8 10.36 0 0zm922.37 262.11l0 0 0 0zm-396.65 -1024.07l-55.07 -53.71 55.07 53.71zm100.7 -191.5l-43.48 -42.4 43.48 42.4zm192.59 71.93l0 0 -0.19 -0.19 0.19 0.19zm-152.94 -149.14l-38.22 -37.26 38.22 37.26zm595.66 349.08l-0.06 -0.06 0 0 0.06 0.06zm-499.12 -602.57l-0.01 0 0.01 0zm757.18 564.52l-0.05 -0.05 -0.01 0 0.06 0.05z"/>
    </g>
    <path class="fil0" d="M2389.08 1253.72l60.79 85.75c-611.39,397.18 -1687.03,814.27 -2058.52,690.57 -274.42,-91.37 -157.2,-315.14 -58.45,-407.72 71.37,-66.9 186.61,-150.54 186.61,-150.54 0,0 -147.71,60.37 -259.86,163.25 -99.91,91.63 -170.13,223.06 -123.74,348.15 27.81,75.07 88.03,154.22 235.89,203.23 143.9,47.73 402.44,43.77 712.53,-31.19 711.19,-171.98 1260.95,-463.66 1485.85,-615.23l56.27 82.24 194.22 -369.62 -431.59 1.11z"/>
    <path class="fil0" d="M2820.66 1252.61l0.01 0.01 -194.21 369.61 -56.29 -82.24c-224.9,151.57 -774.64,443.25 -1485.85,615.23 -310.08,74.97 -568.61,78.92 -712.53,31.21 -147.84,-49.04 -208.06,-128.17 -235.88,-203.26 -46.4,-125.07 23.84,-256.52 123.73,-348.15 112.15,-102.86 259.86,-163.23 259.86,-163.23 0,0 -115.24,83.62 -186.59,150.54 -98.77,92.56 -215.97,316.34 58.43,407.71 371.5,123.7 1447.13,-293.39 2058.53,-690.57l-60.8 -85.75 431.59 -1.11z"/>
    <path class="fil0" d="M1165.69 2503.59c123.52,-231.82 247.04,-463.63 370.57,-695.46 52.7,-100.7 88.74,-188.89 113.01,-255.22 62.82,-171.8 103.66,-288.15 48.03,-367.39 -24.93,-35.52 -62.04,-53.33 -90.98,-62.91 192.09,-28.39 384.19,-56.76 576.27,-85.15l-1016.9 1466.13z"/>
    <path class="fil0" d="M1346.72 1606.59c-277.83,58.96 -555.63,117.94 -833.47,176.92 53.47,-85.8 106.93,-171.59 160.4,-257.4 287.47,-461.32 574.93,-922.65 862.4,-1383.97 -185.24,287.13 -300.96,538.49 -371.91,713.65 -128.02,316.02 -231.69,580.14 -118.14,700.32 72.57,76.81 207.87,67.32 300.72,50.48z"/>
   </g>
  </g>
 </g>
</svg>
